<svg xmlns="http://www.w3.org/2000/svg" viewBox="0 0 82.29 20.00" width="82.29" height="20.00"><defs><clipPath id="c1"><rect x="0.0" y="3.0" width="82.29" height="17.0"/></clipPath></defs><g><g><g clip-path="url(#c1)"><path transform="translate(0.648 4.889) scale(0.13490 0.13492) translate(0.000 0.000)" d="M0 84.5l42.6-84.5 16.4 0-42.7 84.5-16.3 0z m83.59999-14.70001l41.3 0 0 14.70001-57.69999 0 0-84.5 16.40001 0-0.00002 69.79999z m51.2-55.20001l0-14.59998 16.3 0 0 14.60001-16.3-0.00003z m0.1 69.89999l0-62 16.2 0 0 62-16.2 0z m66.90001-62l17.4 0-22.7 62-15.89999 0-22.2-62 17.79999 0 12.69999 39.5 12.90001-39.5z m79.30004 35.60001l-44.30001 0c0.70002 9 6.29999 14.39999 14.9 14.39999 7.40001 0 12.10002-3.79999 14.10002-9.70001l14.1 4.5c-3.89999 11.70001-14.89999 18.39999-28.60002 18.39999-18.70001 0-30.8-12.29999-30.8-32.10001 0-19.5 11.2-32.60001 31.3-32.6 20.10002 0.20001 31.00002 13.89999 29.30001 37.1m-44.10002-11.70001l28.10002 0c-1-7.89999-5.5-12.29999-13.60002-12.29999-8.29999 0-13.4 4.79999-14.5 12.29999m103.50001 38.10001l-16.5-33.20001-14.10001 0 0 33.20001-16.39999 0 0-84.49994 32.10001 0c21 0 31.39999 9.79999 31.39999 25.39999 0 11.5-5.79999 19-16.20001 23.10001l18.70001 36-19-0.00006z m-30.70001-69.79999l0 22 16.20001 0c9.79999 0 14.10001-4.29999 14.10001-11.39999 0-7.20001-4.10001-10.70001-14-10.70002l-16.29999 0-0.00003 0.10001z m99.69998 69.79999c-0.70001-1.10001-1.5-3.10001-1.89999-5.70001-4.4 4.79999-11 7.10001-18.4 7.1-16.70001 0-27.89999-11.60001-27.89999-32.1 0-21.20001 12.1-32.60001 28.20001-32.60001 7 0 12.70001 2.20001 16.89999 6.79999l0-5.5 15.79999 0 0 43.89999c0 6.10001 0.70001 12.79999 1.9 18.10001l-14.60001 0.00003z m-3.10001-30.9c0-12.5-5.89999-19.20001-14.5-19.20001-9.79998 0-15 8-15 19.29999 0 12 5.70002 18.79999 15.10001 18.79999 9.10001 0 14.39999-7 14.39999-18.9m119.60001-2.39999l0 33.29999-16.20001 0 0-33.20001c0-6.10001 0-16.20001-9.40003-16.20002-7.29998 0-11.40002 5.60001-11.40002 16.29999l0 33-16.20001 0 0-33.20001c0-6.20001 0-16.20001-9.5-16.20001-7 0-11.20002 5.60001-11.20002 16l0 33.29998-16.20001 0 0-62 16.30011 0 0 5c4.70001-4.39999 9.5-6.29999 15.60001-6.29998 8.20001 0 14.29999 3.20001 17.80002 8.6 4.5-5.10001 10.5-8.5 19.59997-8.5 20.79999 0.10001 20.79999 17.89999 20.79999 30.10001m74 1.89999c0 20.60001-11.5 32.70001-27.29999 32.70002-6.90002 0-12.90002-2.29999-17-6.10001l0 26.30014-16.20001 0 0-83.60001 16.20001 0 0 6.29999c4.09998-4.79999 10-7.70001 17.29999-7.70001 16.59998 0.10001 27 13.10001 27 32.10001m-15.70001 0.20001c0-11.89999-5.40003-18.89999-14.40003-18.9-9.09997 0-14.59997 7.20001-14.59997 19.20002 0 11.89999 5.5 18.89999 14.5 18.89999 9.09997 0 14.5-7.39999 14.5-19.20001" fill="#2B1D7A"/></g></g></g></svg>